<?xml version="1.0" encoding="utf-8"?>
<!-- Generator: Adobe Illustrator 24.1.1, SVG Export Plug-In . SVG Version: 6.00 Build 0)  -->
<svg version="1.1" id="Layer_1" xmlns="http://www.w3.org/2000/svg" xmlns:xlink="http://www.w3.org/1999/xlink" x="0px" y="0px"
	 viewBox="0 0 200 200" style="enable-background:new 0 0 200 200;" xml:space="preserve">
<style type="text/css">
	.st0{fill-rule:evenodd;clip-rule:evenodd;fill:#222222;}
</style>
<g>
	<g transform="translate(-17.000000, -49.000000)">
		<path class="st0" d="M29.9,73h125.9c6,0,10.9,4.9,10.9,10.9c0,6-4.9,10.9-10.9,10.9H29.9c-6,0-10.9-4.9-10.9-10.9
			C19,77.9,23.9,73,29.9,73z M29.9,203.3h99.9c6,0,10.9,4.9,10.9,10.9s-4.9,10.9-10.9,10.9H29.9c-6,0-10.9-4.9-10.9-10.9
			S23.9,203.3,29.9,203.3z M29.9,138.1h173.7c6,0,10.9,4.9,10.9,10.9s-4.9,10.9-10.9,10.9H29.9c-6,0-10.9-4.9-10.9-10.9
			S23.9,138.1,29.9,138.1z"/>
	</g>
</g>
</svg>
